<svg width="804" height="595" viewBox="0 0 804 595" fill="none" xmlns="http://www.w3.org/2000/svg">
<g filter="url(#filter0_d_129_6435)">
<path d="M422.431 351.26C336.383 383.759 247.659 393.316 190.928 376.199L238.938 341.526C281.284 354.294 347.495 347.161 411.722 322.904C438.998 312.603 464.189 300.034 486.667 285.564L522.896 301.163C492.759 320.637 458.952 337.467 422.431 351.26Z" stroke="#C9C9C9" stroke-width="0.7993" stroke-miterlimit="10"/>
<path d="M391.915 270.459C452.202 247.69 492.667 206.974 482.297 179.517C471.927 152.06 414.649 148.259 354.362 171.028C294.076 193.797 253.61 234.513 263.98 261.97C274.35 289.427 331.628 293.228 391.915 270.459Z" stroke="#C9C9C9" stroke-width="0.5995" stroke-miterlimit="10"/>
<path d="M453.327 179.635C461.287 200.71 430.244 231.934 383.968 249.411C337.72 266.878 293.76 263.981 285.8 242.906C277.841 221.831 308.884 190.608 355.159 173.131C401.397 155.635 445.368 158.56 453.327 179.635Z" stroke="#C9C9C9" stroke-width="1.2267" stroke-miterlimit="10"/>
<path d="M417.178 337.353C535.659 292.605 615.187 212.591 594.809 158.634C574.431 104.678 461.864 97.2133 343.383 141.961C224.902 186.708 145.375 266.723 165.753 320.679C186.131 374.635 298.698 382.1 417.178 337.353Z" stroke="#C9C9C9" stroke-width="1.5986" stroke-miterlimit="10"/>
<path d="M609.141 222.345L551.061 226.699C565.033 206.05 569.224 186.659 563.145 170.561L625.356 147.065C633.525 168.613 627.914 194.651 609.141 222.345Z" stroke="#C9C9C9" stroke-width="0.7993" stroke-miterlimit="10"/>
<path d="M211.025 250.381L153.488 253.977C187.566 205.911 256.587 158.817 338.147 128.014C407.667 101.758 479.318 90.1659 534.66 96.2057L495.501 132.607C454.185 128.094 400.737 136.743 348.845 156.342C287.951 179.34 236.437 214.492 211.025 250.381Z" stroke="#C9C9C9" stroke-width="0.7993" stroke-miterlimit="10"/>
<path d="M399.874 291.534C471.856 264.348 520.172 215.734 507.791 182.952C495.41 150.17 427.02 145.633 355.038 172.819C283.056 200.005 234.74 248.619 247.121 281.401C259.502 314.183 327.892 318.719 399.874 291.534Z" stroke="#C9C9C9" stroke-width="1.515" stroke-miterlimit="10" stroke-dasharray="2.27 2.27"/>
<path d="M404.105 302.739C489.667 270.424 547.097 212.636 532.379 173.665C517.66 134.694 436.367 129.298 350.805 161.613C265.243 193.928 207.813 251.716 222.532 290.687C237.25 329.658 318.544 335.054 404.105 302.739Z" stroke="#C9C9C9" stroke-miterlimit="10"/>
<path d="M409.051 314.131C503.177 278.582 566.356 215.014 550.167 172.147C533.977 129.281 444.549 123.349 350.423 158.898C256.298 194.447 193.118 258.015 209.308 300.882C225.498 343.748 314.926 349.68 409.051 314.131Z" stroke="#C9C9C9" stroke-width="0.5995" stroke-miterlimit="10"/>
<path d="M439.09 395.374C591.602 337.773 693.971 234.771 667.738 165.311C641.505 95.8517 496.603 86.238 344.09 143.838C191.578 201.439 89.2087 304.441 115.442 373.901C141.675 443.361 286.577 452.974 439.09 395.374Z" stroke="#C9C9C9" stroke-width="0.9714" stroke-miterlimit="10"/>
<path d="M455.73 439.429C624.642 375.634 738.022 261.562 708.971 184.642C679.92 107.721 519.439 97.0798 350.526 160.874C181.614 224.668 68.2343 338.741 97.2855 415.661C126.337 492.582 286.818 503.223 455.73 439.429Z" stroke="#C9C9C9" stroke-width="1.0759" stroke-miterlimit="10"/>
<path d="M466.095 466.875C652.699 396.399 777.953 270.378 745.859 185.399C713.764 100.421 536.474 88.6636 349.871 159.139C163.267 229.615 38.0129 355.636 70.1075 440.615C102.202 525.594 279.492 537.351 466.095 466.875Z" stroke="#C9C9C9" stroke-width="0.5706" stroke-miterlimit="10" stroke-dasharray="2.16 2.16"/>
<path d="M432.924 379.048C576.205 324.934 672.38 228.171 647.736 162.921C623.093 97.6707 486.963 88.6432 343.682 142.757C200.402 196.871 104.227 293.634 128.87 358.884C153.514 424.134 289.643 433.162 432.924 379.048Z" stroke="#C9C9C9" stroke-width="0.5995" stroke-miterlimit="10" stroke-dasharray="2.27 2.27"/>
<path d="M329.854 138.979L337.401 154.003" stroke="#C9C9C9" stroke-width="1.2267" stroke-miterlimit="10"/>
<path d="M305.328 149.574L316.519 163.026" stroke="#C9C9C9" stroke-width="1.2267" stroke-miterlimit="10"/>
<path d="M281.667 161.239L296.373 172.941" stroke="#C9C9C9" stroke-width="1.2267" stroke-miterlimit="10"/>
<path d="M259.186 173.825L277.273 183.666" stroke="#C9C9C9" stroke-width="1.2267" stroke-miterlimit="10"/>
<path d="M238.147 187.231L259.368 195.043" stroke="#C9C9C9" stroke-width="1.2267" stroke-miterlimit="10"/>
<path d="M218.808 201.229L242.893 206.952" stroke="#C9C9C9" stroke-width="1.2267" stroke-miterlimit="10"/>
<path d="M201.358 215.684L228.067 219.246" stroke="#C9C9C9" stroke-width="1.2267" stroke-miterlimit="10"/>
<path d="M186.078 230.425L215.06 231.796" stroke="#C9C9C9" stroke-width="1.2267" stroke-miterlimit="10"/>
<path d="M173.08 245.278L203.998 244.456" stroke="#C9C9C9" stroke-width="1.2267" stroke-miterlimit="10"/>
<path d="M162.548 260.078L195.051 257.031" stroke="#C9C9C9" stroke-width="1.2267" stroke-miterlimit="10"/>
<path d="M154.59 274.62L188.298 269.396" stroke="#C9C9C9" stroke-width="1.2267" stroke-miterlimit="10"/>
<path d="M149.327 288.73L183.814 281.425" stroke="#C9C9C9" stroke-width="1.2267" stroke-miterlimit="10"/>
<path d="M146.803 302.293L181.651 292.934" stroke="#C9C9C9" stroke-width="1.2267" stroke-miterlimit="10"/>
<path d="M167.815 350.611L199.516 334.056" stroke="#C9C9C9" stroke-width="1.2267" stroke-miterlimit="10"/>
<path d="M179.658 358.553L209.618 340.803" stroke="#C9C9C9" stroke-width="1.2267" stroke-miterlimit="10"/>
<path d="M193.893 365.103L221.73 346.368" stroke="#C9C9C9" stroke-width="1.2267" stroke-miterlimit="10"/>
<path d="M210.347 370.133L235.729 350.668" stroke="#C9C9C9" stroke-width="1.2267" stroke-miterlimit="10"/>
<path d="M605.189 142.202L571.63 156.761" stroke="#C9C9C9" stroke-width="1.2267" stroke-miterlimit="10"/>
<path d="M596.948 132.413L564.614 148.427" stroke="#C9C9C9" stroke-width="1.2267" stroke-miterlimit="10"/>
<path d="M586.143 123.884L555.399 141.183" stroke="#C9C9C9" stroke-width="1.2267" stroke-miterlimit="10"/>
<path d="M572.891 116.767L544.135 135.102" stroke="#C9C9C9" stroke-width="1.2267" stroke-miterlimit="10"/>
<path d="M557.323 111.077L530.894 130.289" stroke="#C9C9C9" stroke-width="1.2267" stroke-miterlimit="10"/>
<path d="M569.065 252.17L623.053 255.764" stroke="#C9C9C9" stroke-width="0.5995" stroke-miterlimit="10"/>
<path d="M152.477 325.693L87.3369 350.295" stroke="#C9C9C9" stroke-width="0.5995" stroke-miterlimit="10"/>
</g>
<defs>
<filter id="filter0_d_129_6435" x="60.8066" y="94.2391" width="694.353" height="426.956" filterUnits="userSpaceOnUse" color-interpolation-filters="sRGB">
<feFlood flood-opacity="0" result="BackgroundImageFix"/>
<feColorMatrix in="SourceAlpha" type="matrix" values="0 0 0 0 0 0 0 0 0 0 0 0 0 0 0 0 0 0 127 0" result="hardAlpha"/>
<feOffset dy="4"/>
<feGaussianBlur stdDeviation="2"/>
<feComposite in2="hardAlpha" operator="out"/>
<feColorMatrix type="matrix" values="0 0 0 0 0 0 0 0 0 0 0 0 0 0 0 0 0 0 0.25 0"/>
<feBlend mode="normal" in2="BackgroundImageFix" result="effect1_dropShadow_129_6435"/>
<feBlend mode="normal" in="SourceGraphic" in2="effect1_dropShadow_129_6435" result="shape"/>
</filter>
</defs>
</svg>
